<?xml version="1.0" encoding="UTF-8"?><svg id="_レイヤー_2" xmlns="http://www.w3.org/2000/svg" viewBox="0 0 512 512"><defs><style>.cls-1{fill:#518889;stroke-width:0px;}</style></defs><g id="_2"><polygon class="cls-1" points="237.6 331.5 271.6 365.5 347.1 289.9 381.1 256 347.1 222.1 271.6 146.5 237.6 180.5 289.2 232 0 232 0 280 289.2 280 237.6 331.5"/><polygon class="cls-1" points="464 0 416 0 192 0 144 0 96 0 96 48 96 80 96 160 144 160 176 160 176 80 432 80 432 432 176 432 176 352 144 352 96 352 96 432 96 464 96 512 144 512 192 512 416 512 464 512 512 512 512 464 512 416 512 96 512 48 512 0 464 0"/></g></svg>