<?xml version="1.0" encoding="UTF-8"?><svg id="_レイヤー_2" xmlns="http://www.w3.org/2000/svg" viewBox="0 0 511.999 401.876"><defs><style>.cls-1{fill:#518889;stroke-width:0px;}</style></defs><g id="mail"><path class="cls-1" d="M510.678,57.213c-2.308-11.626-7.463-22.265-14.662-31.054-1.518-1.915-3.104-3.63-4.823-5.345-12.755-12.818-30.657-20.814-50.214-20.814H71.021c-19.557,0-37.395,7.996-50.21,20.814-1.715,1.715-3.301,3.43-4.823,5.345-7.203,8.788-12.358,19.428-14.602,31.054-.922,4.487-1.386,9.124-1.386,13.812v259.833c0,9.968,2.114,19.55,5.884,28.203,3.497,8.26,8.653,15.734,14.926,22.001,1.59,1.586,3.169,3.044,4.892,4.494,12.286,10.175,28.145,16.32,45.319,16.32h369.958c17.18,0,33.108-6.145,45.323-16.384,1.718-1.386,3.305-2.844,4.891-4.43,6.27-6.267,11.425-13.741,14.994-22.001v-.064c3.769-8.653,5.812-18.171,5.812-28.138V71.025c.001-4.688-.456-9.325-1.321-13.812ZM46.509,46.509c6.345-6.338,14.866-10.175,24.512-10.175h369.958c9.646,0,18.242,3.837,24.512,10.175,1.122,1.129,2.179,2.387,3.112,3.637l-193.907,168.995c-5.348,4.687-11.954,7.002-18.696,7.002-6.674,0-13.276-2.315-18.695-7.002L43.472,50.074c.858-1.25,1.915-2.436,3.037-3.565ZM36.334,330.858V87.673l140.324,122.415-140.253,122.285c-.071-.464-.071-.986-.071-1.515ZM440.979,365.535H71.021c-6.281,0-12.158-1.651-17.174-4.552l147.978-128.959,13.815,12.018c11.561,10.046,26.028,15.134,40.36,15.134,14.406,0,28.872-5.088,40.432-15.134l13.808-12.018,147.92,128.959c-5.023,2.901-10.9,4.552-17.181,4.552ZM475.666,330.858c0,.529,0,1.051-.068,1.515l-140.252-122.214,140.32-122.421v243.12Z"/></g></svg>