<?xml version="1.0" encoding="UTF-8"?><svg id="_レイヤー_2" xmlns="http://www.w3.org/2000/svg" viewBox="0 0 461.213 512.1"><defs><style>.cls-1{fill:#518889;stroke-width:0px;}</style></defs><g id="orders"><path class="cls-1" d="M134.6,122.5h125c19.1,0,34.7-15.6,34.7-34.7v-26.8c0-19.1-15.6-34.7-34.7-34.7h-27.4c-4.5-15.4-18.5-26.3-35.1-26.3s-30.6,10.9-35.1,26.3h-27.4c-19.1,0-34.7,15.6-34.7,34.7v26.8c0,19.1,15.5,34.7,34.7,34.7ZM197.1,23.6c7.3,0,13.2,5.9,13.2,13.2s-5.9,13.2-13.2,13.2-13.2-5.9-13.2-13.2,5.9-13.2,13.2-13.2Z"/><polygon class="cls-1" points="129.5 204.9 161.1 173.2 149.6 161.7 118 193.4 97.8 173.2 86.3 184.7 118 216.4 129.5 204.9"/><polygon class="cls-1" points="129.5 287.6 161.1 256 149.6 244.5 118 276.1 97.8 256 86.3 267.5 118 299.1 129.5 287.6"/><polygon class="cls-1" points="161.1 338.7 149.6 327.2 118 358.9 97.8 338.7 86.3 350.2 118 381.9 161.1 338.7"/><path class="cls-1" d="M454.3,206.5l-15.1-15.1c-9.2-9.2-24.1-9.2-33.2,0l-14.1,14.2,48.3,48.3,14.2-14.1c9.1-9.2,9.1-24.1-.1-33.3Z"/><polygon class="cls-1" points="259.2 338.1 259.2 386.5 307.5 386.5 426.9 267.1 378.6 218.7 259.2 338.1"/><path class="cls-1" d="M315.5,104.5h30.3c.6,0,1.1.5,1.1,1.1v111.5l47.3-47.3v-62.4c0-29-23.6-52.6-52.6-52.6h-24c.2,2,.3,4,.3,6.1v26.8c0,5.9-.8,11.5-2.4,16.8Z"/><path class="cls-1" d="M346.8,374.7v76.3c0,.6-.5,1.1-1.1,1.1H48.4c-.6,0-1.1-.5-1.1-1.1V105.6c0-.6.5-1.1,1.1-1.1h30.3c-1.6-5.3-2.5-10.9-2.5-16.7v-26.8c0-2.1.1-4.1.3-6.1h-23.9C23.6,54.9,0,78.5,0,107.5v352c0,29,23.6,52.6,52.6,52.6h289c29,0,52.6-23.6,52.6-52.6v-126.2l-41.3,41.3-6.1.1h0Z"/></g></svg>