<?xml version="1.0" encoding="UTF-8"?><svg id="_レイヤー_2" xmlns="http://www.w3.org/2000/svg" viewBox="0 0 309.756 309.75"><defs><style>.cls-1{fill:none;stroke:#fff;stroke-miterlimit:10;stroke-width:2.362px;}.cls-2{fill:#aa8546;}.cls-2,.cls-3{stroke-width:0px;}.cls-3{fill:#fff;}</style></defs><g id="_レイヤー_1-2"><path class="cls-2" d="M309.756,154.867c0,85.533-69.346,154.883-154.876,154.883S0,240.4,0,154.867,69.346,0,154.88,0s154.876,69.34,154.876,154.867Z"/><path class="cls-3" d="M263.119,89.602c-8.266,0-14.973,6.713-14.973,14.978,0,3.906,1.512,7.453,3.969,10.117l-56.358,31.044-37.25-66.028c6.362-1.726,11.052-7.523,11.052-14.443,0-8.26-6.708-14.957-14.967-14.957s-14.973,6.697-14.973,14.957c0,6.92,4.689,12.718,11.045,14.443l-37.245,66.028-56.358-31.044c2.441-2.664,3.963-6.211,3.963-10.117,0-8.266-6.703-14.978-14.965-14.978s-14.973,6.713-14.973,14.978,6.699,14.969,14.973,14.969c1.806,0,3.531-.336,5.139-.928l32.094,116.05c1.75-1.13,3.772-1.821,5.952-1.821h132.418c1.574,0,3.076.346,4.451.965l31.863-115.193c1.61.592,3.333.928,5.143.928,8.267,0,14.972-6.711,14.972-14.969s-6.705-14.978-14.972-14.978Z"/><path class="cls-1" d="M221.662,238.712H89.244c-3.222,0-5.836,3.054-5.836,6.814s2.614,6.806,5.836,6.806h132.418c3.211,0,5.823-3.051,5.823-6.806s-2.612-6.814-5.823-6.814Z"/><path class="cls-3" d="M221.662,238.712H89.244c-3.222,0-5.836,3.054-5.836,6.814s2.614,6.806,5.836,6.806h132.418c3.211,0,5.823-3.051,5.823-6.806s-2.612-6.814-5.823-6.814Z"/><path class="cls-2" d="M129.03,203.347l10.979-10.979c4.5,4.589,9.27,7.199,15.029,7.199,4.95,0,8.1-2.52,8.1-6.39v-.18c0-4.05-3.689-6.48-10.26-6.48h-7.379l-2.52-9.089,14.488-13.05h-24.118v-14.129h45.538v12.51l-15.029,12.869c9,1.98,16.289,7.02,16.289,17.729v.18c0,12.779-10.26,20.969-24.299,20.969-12.149,0-20.699-4.41-26.818-11.159Z"/></g></svg>