<?xml version="1.0" encoding="UTF-8"?><svg id="_レイヤー_2" xmlns="http://www.w3.org/2000/svg" viewBox="0 0 309.753 309.75"><defs><style>.cls-1{fill:none;stroke:#fff;stroke-miterlimit:10;stroke-width:2.362px;}.cls-2{fill:#fff;}.cls-2,.cls-3{stroke-width:0px;}.cls-3{fill:#a7aaa9;}</style></defs><g id="_レイヤー_1-2"><path class="cls-3" d="M309.753,154.867c0,85.533-69.341,154.883-154.873,154.883S0,240.4,0,154.867,69.343,0,154.88,0s154.873,69.34,154.873,154.867Z"/><path class="cls-2" d="M262,89.602c-8.266,0-14.973,6.713-14.973,14.978,0,3.906,1.512,7.453,3.969,10.117l-56.358,31.044-37.25-66.028c6.362-1.726,11.052-7.523,11.052-14.443,0-8.26-6.708-14.957-14.967-14.957s-14.973,6.697-14.973,14.957c0,6.92,4.689,12.718,11.045,14.443l-37.245,66.028-56.357-31.044c2.441-2.664,3.963-6.211,3.963-10.117,0-8.266-6.703-14.978-14.965-14.978s-14.973,6.713-14.973,14.978,6.699,14.969,14.973,14.969c1.806,0,3.531-.336,5.139-.928l32.094,116.05c1.75-1.13,3.772-1.821,5.952-1.821h132.418c1.574,0,3.076.346,4.451.965l31.863-115.193c1.61.592,3.333.928,5.143.928,8.267,0,14.972-6.711,14.972-14.969s-6.705-14.978-14.972-14.978Z"/><path class="cls-1" d="M220.543,238.712H88.125c-3.222,0-5.836,3.054-5.836,6.814s2.614,6.806,5.836,6.806h132.418c3.211,0,5.823-3.051,5.823-6.806s-2.612-6.814-5.823-6.814Z"/><path class="cls-2" d="M220.543,238.712H88.125c-3.222,0-5.836,3.054-5.836,6.814s2.614,6.806,5.836,6.806h132.418c3.211,0,5.823-3.051,5.823-6.806s-2.612-6.814-5.823-6.814Z"/><path class="cls-3" d="M127.423,201.276l23.579-17.999c5.85-4.59,8.1-7.56,8.1-11.34,0-3.96-2.789-6.39-7.02-6.39s-7.56,2.43-12.51,8.1l-11.789-9.81c6.75-8.729,13.409-13.499,25.648-13.499,13.77,0,23.219,8.189,23.219,20.068v.181c0,10.079-5.219,15.299-14.578,22.049l-10.801,7.56h26.01v14.22h-49.858v-13.14Z"/></g></svg>